<?xml version="1.0" encoding="UTF-8"?><svg id="uuid-2d971dfc-229d-4779-9fd0-01f29a15d60f" xmlns="http://www.w3.org/2000/svg" viewBox="0 0 733.93 576.69"><defs><style>.uuid-b722189e-bf04-4479-ad6b-5435e16b6657,.uuid-c6b78090-495f-4a5d-8ba7-367a6555881a,.uuid-2369cb49-df93-49b4-ba33-17ae485ce018{isolation:isolate;}.uuid-c6b78090-495f-4a5d-8ba7-367a6555881a{font-family:Helvetica, Helvetica;font-size:422.38px;letter-spacing:-.12em;}.uuid-2369cb49-df93-49b4-ba33-17ae485ce018{font-family:BodoniSvtyTwoITCTT-Book, 'Bodoni 72';font-size:437.91px;}.uuid-25340e11-3150-4fb8-b239-fa311af92933{fill:#434345;}</style></defs><g class="uuid-b722189e-bf04-4479-ad6b-5435e16b6657"><g class="uuid-b722189e-bf04-4479-ad6b-5435e16b6657"><text class="uuid-2369cb49-df93-49b4-ba33-17ae485ce018" transform="translate(0 372.66)"><tspan x="0" y="0">M</tspan></text></g></g><g class="uuid-b722189e-bf04-4479-ad6b-5435e16b6657"><g class="uuid-b722189e-bf04-4479-ad6b-5435e16b6657"><text class="uuid-c6b78090-495f-4a5d-8ba7-367a6555881a" transform="translate(508.81 373.54)"><tspan x="0" y="0">L</tspan></text></g></g><path class="uuid-25340e11-3150-4fb8-b239-fa311af92933" d="M517.43,72.58l-215.16-3.03s54.81,141.59,210.12,143.12c0,0-89.23-34.91-90.43-121.43l33.19.45s.15,68.64,61.47,70.13c0,0,.81-89.24.81-89.24Z"/><path class="uuid-25340e11-3150-4fb8-b239-fa311af92933" d="M512.39,212.67s-136.93-28.62-181.68,11.6c-32.04,21.65-26.03,75.5-24.33,148.39,47.64,1.33,210.51-.49,210.51-.49v-128.27s-41.56-14.13-73.81,9.12c-32.25,23.26-28.06,92.71-28.06,92.71l-29.81-.45s-35.52-139.99,127.18-132.61h0Z"/></svg>