<?xml version="1.0" encoding="UTF-8"?>
<svg xmlns="http://www.w3.org/2000/svg" viewBox="0 0 453.85 474.9">
  <defs>
    <style>
      .cls-1 {
        fill: none;
        stroke: #c11e1e;
        stroke-miterlimit: 10;
      }

      .cls-2, .cls-3, .cls-4 {
        isolation: isolate;
      }

      .cls-3 {
        font-family: BodoniSvtyTwoITCTT-Book, 'Bodoni 72';
        font-size: 271.17px;
      }

      .cls-4 {
        font-family: Helvetica, Helvetica;
        font-size: 261.55px;
        letter-spacing: -.16em;
      }
    </style>
  </defs>
  <g id="Layer_1" data-name="Layer 1">
    <g class="cls-2">
      <g class="cls-2">
        <g class="cls-2">
          <text class="cls-3" transform="translate(0 352.75)"><tspan x="0" y="0">M</tspan></text>
        </g>
      </g>
    </g>
    <g class="cls-2">
      <g class="cls-2">
        <g class="cls-2">
          <text class="cls-4" transform="translate(314.44 349.1)"><tspan x="0" y="0">L</tspan></text>
        </g>
      </g>
    </g>
  </g>
  <g id="Layer_2" data-name="Layer 2">
    <g>
      <path class="cls-1" d="M369.8,173.53c-1.89-5.69-3.15-11.25-6.54-16.34-3.56-5.34-6.72-10.46-11.98-15.25-2.43-2.21-5.01-4.06-7.63-5.99-2.3-1.7-6.31-2.78-7.63-5.44h-2.18c-5.32-2.66-10.78-4.46-16.34-6.54h-5.44v-1.09h-21.79v1.09h-4.36c-3.98,1.99-7.28,4.06-10.9,6.54h-5.44c-10.87-9.12-25.23-11.51-38.13-16.34h-5.44v-1.09h-25.06v1.09h-5.44c-4.83,1.81-9.66,3.41-14.17,5.99-4.31,2.48-10.57,5.84-13.07,10.35h-1.09c.18,2.35-3.21,5.16-4.36,7.08-1.35,2.25-2.62,4.76-3.82,7.08-2.25,4.35-2.46,9.42-3.82,14.17-1.44,5.02-.69,8.99,0,14.17.55,4.22,2.72,10.52,4.9,14.17,1.55,2.57,2.86,4.49,4.9,7.08.69.88,5.49,6.8,5.44,7.63-.18,3.37-10.33,8.69-13.07,10.9-9.32,7.55-13.64,18.5-19.61,27.78v1.09h-1.09c.65,2.64-1.52,5.32-2.18,7.63-.65,2.29-1.4,4.74-2.18,7.08-1.6,4.81-2.55,10.09-3.27,15.25-1.44,10.37.69,21.12,2.18,30.51.98.47,1.35,1.2,1.09,2.18v1.63c.34,1.18.67,2.55,1.09,3.82.83,2.48,2.17,5.24,3.27,7.63,2.57,5.59,5.8,10.19,9.81,15.25,1.83,2.31,3.45,5.18,5.44,7.63,2.2,2.7,5.06,5.3,7.63,7.63,2.44,2.22,5.12,3.9,7.63,5.99,2.01,1.68,5.35,3.03,6.54,5.44h2.18c5.89,5.07,13.99,6.45,20.7,9.81h5.44v1.09h6.54v1.09h11.98v-1.09h6.54v-1.09h5.44c6.78-3.39,14.72-4.88,20.7-9.81h1.09c2.28.88,4.55,5.12,6.54,7.08.47.46,1.38,1.42,2.18,2.18,1.3,1.22,2.4,2.01,3.82,3,4.57,3.21,9.72,4.86,14.71,7.35h5.44v1.09h23.97v-1.09h5.44c4.74-2.38,10.31-3.76,14.71-6.81,3.17-2.2,12.91-8.54,12.53-12.8h1.09c2.81-5.09,5.86-9.4,7.63-14.71,1.58-4.74,2.57-10.25,3.27-15.25.67-4.87,0-10.34,0-15.25,0-2.82-.26-5.16-1.09-7.63-.5-1.5-.6-2.9-1.09-4.36-.23-.69-1.04-2.95-1.09-3.27-.85-5.28-2.18-10.52-4.36-15.25-1.21-2.62-2.82-5.18-4.36-7.63-1.47-2.35-2.66-5.56-4.36-7.63-4.24-5.18-8.73-10.8-14.17-15.25-2.48-2.03-14.59-7.96-10.9-11.44h14.17v-1.09h5.44c5.4-2.03,11.25-3.19,16.34-5.99,6.03-3.31,10.68-8.45,14.71-13.62,1.62-2.08,2.98-5.69,3.82-8.17.23-.69,1-2.74,1.09-3.27v-2.18c-.26-.98.11-1.71,1.09-2.18.84-5.25,1.09-10.11,1.09-15.8s-.55-10.88-2.18-15.8h.01s0,.01,0,.01Z"/>
      <path class="cls-1" d="M275.4,162.59s-7.11-23.84,10.31-28.51c17.38-4.65,68.55,10.66,58.59,61.26-7.59,38.58-99.38,12.53-101.34-1.18-1.96-13.71,44.33-3.57,44.41,23.73.14,51.86-39.51,47.5-43.67,47.01-30.22-3.59,3.07-30.03,45.04-14.42,49.28,18.31,59.12,106.21.58,103.64-42.76-1.89-27.15-46.38-27.15-46.38,0,0-34.95,61.07-87.2,26.11-69.07-46.23-24.94-140.09,38.25-130.69,0,0-56.67-21.64-46.62-52.98,15.7-48.96,90.88-21.34,108.82,12.41h0Z"/>
      <path class="cls-1" d="M275.4,162.59s-7.11-23.84,10.31-28.51c17.38-4.65,68.55,10.66,58.59,61.26-7.59,38.58-99.38,12.53-101.34-1.18-1.96-13.71,44.33-3.57,44.41,23.73.14,51.86-39.51,47.5-43.67,47.01-30.22-3.59,3.07-30.03,45.04-14.42,49.28,18.31,59.12,106.21.58,103.64-42.76-1.89-27.15-46.38-27.15-46.38,0,0-34.95,61.07-87.2,26.11-69.07-46.23-24.94-140.09,38.25-130.69,0,0-56.67-21.64-46.62-52.98,15.7-48.96,90.88-21.34,108.82,12.41h0Z"/>
      <path class="cls-1" d="M369.8,172.45c-1.89-5.69-3.15-11.25-6.54-16.34-3.56-5.34-6.72-10.46-11.98-15.25-2.43-2.21-5.01-4.06-7.63-5.99-2.3-1.7-6.31-2.78-7.63-5.44h-2.18c-5.32-2.66-10.78-4.46-16.34-6.54h-5.44v-1.09h-21.79v1.09h-4.36c-3.98,1.99-7.28,4.06-10.9,6.54h-5.44c-10.87-9.12-25.23-11.51-38.13-16.34h-5.44v-1.09h-25.06v1.09h-5.44c-4.83,1.81-9.66,3.41-14.17,5.99-4.31,2.48-10.57,5.84-13.07,10.35h-1.09c.18,2.35-3.21,5.16-4.36,7.08-1.35,2.25-2.62,4.76-3.82,7.08-2.25,4.35-2.46,9.42-3.82,14.17-1.44,5.02-.69,8.99,0,14.17.55,4.22,2.72,10.52,4.9,14.17,1.55,2.57,2.86,4.49,4.9,7.08.69.88,5.49,6.8,5.44,7.63-.18,3.37-10.33,8.69-13.07,10.9-9.32,7.55-13.64,18.5-19.61,27.78v1.09h-1.09c.65,2.64-1.52,5.32-2.18,7.63-.65,2.29-1.4,4.74-2.18,7.08-1.6,4.81-2.55,10.09-3.27,15.25-1.44,10.37.69,21.12,2.18,30.51.98.47,1.35,1.2,1.09,2.18v1.63c.34,1.18.67,2.55,1.09,3.82.83,2.48,2.17,5.24,3.27,7.63,2.57,5.59,5.8,10.19,9.81,15.25,1.83,2.31,3.45,5.18,5.44,7.63,2.2,2.7,5.06,5.3,7.63,7.63,2.44,2.22,5.12,3.9,7.63,5.99,2.01,1.68,5.35,3.03,6.54,5.44h2.18c5.89,5.07,13.99,6.45,20.7,9.81h5.44v1.09h6.54v1.09h11.98v-1.09h6.54v-1.09h5.44c6.78-3.39,14.72-4.88,20.7-9.81h1.09c2.28.88,4.55,5.12,6.54,7.08.47.46,1.38,1.42,2.18,2.18,1.3,1.22,2.4,2.01,3.82,3,4.57,3.21,9.72,4.86,14.71,7.35h5.44v1.09h23.97v-1.09h5.44c4.74-2.38,10.31-3.76,14.71-6.81,3.17-2.2,12.91-8.54,12.53-12.8h1.09c2.81-5.09,5.86-9.4,7.63-14.71,1.58-4.74,2.57-10.25,3.27-15.25.67-4.87,0-10.34,0-15.25,0-2.82-.26-5.16-1.09-7.63-.5-1.5-.6-2.9-1.09-4.36-.23-.69-1.04-2.95-1.09-3.27-.85-5.28-2.18-10.52-4.36-15.25-1.21-2.62-2.82-5.18-4.36-7.63-1.47-2.35-2.66-5.56-4.36-7.63-4.24-5.18-8.73-10.8-14.17-15.25-2.48-2.03-14.59-7.96-10.9-11.44h14.17v-1.09h5.44c5.4-2.03,11.25-3.19,16.34-5.99,6.03-3.31,10.68-8.45,14.71-13.62,1.62-2.08,2.98-5.69,3.82-8.17.23-.69,1-2.74,1.09-3.27v-2.18c-.26-.98.11-1.71,1.09-2.18.84-5.25,1.09-10.11,1.09-15.8s-.55-10.88-2.18-15.8h.01s0,.01,0,.01Z"/>
      <path class="cls-1" d="M275.4,161.49s-7.11-23.84,10.31-28.51c17.38-4.65,68.55,10.66,58.59,61.26-7.59,38.58-99.38,12.53-101.34-1.18-1.96-13.71,44.33-3.57,44.41,23.73.14,51.86-39.51,47.5-43.67,47.01-30.22-3.59,3.07-30.03,45.04-14.42,49.28,18.31,59.12,106.21.58,103.64-42.76-1.89-27.15-46.38-27.15-46.38,0,0-34.95,61.07-87.2,26.11-69.07-46.23-24.94-140.09,38.25-130.69,0,0-56.67-21.64-46.62-52.98,15.7-48.96,90.88-21.34,108.82,12.41h0Z"/>
      <path class="cls-1" d="M275.4,161.49s-7.11-23.84,10.31-28.51c17.38-4.65,68.55,10.66,58.59,61.26-7.59,38.58-99.38,12.53-101.34-1.18-1.96-13.71,44.33-3.57,44.41,23.73.14,51.86-39.51,47.5-43.67,47.01-30.22-3.59,3.07-30.03,45.04-14.42,49.28,18.31,59.12,106.21.58,103.64-42.76-1.89-27.15-46.38-27.15-46.38,0,0-34.95,61.07-87.2,26.11-69.07-46.23-24.94-140.09,38.25-130.69,0,0-56.67-21.64-46.62-52.98,15.7-48.96,90.88-21.34,108.82,12.41h0Z"/>
    </g>
  </g>
</svg>